<svg version="1.1" xmlns="http://www.w3.org/2000/svg" xmlns:xlink="http://www.w3.org/1999/xlink" width="892.82080078125" height="444"><defs></defs><g><g transform="translate(-141,-62) scale(1,1)"><rect fill="#C0C0C0" stroke="none" x="287" y="79" width="624" height="424" opacity="0.2"></rect></g><g transform="translate(-141,-62) scale(1,1)"><rect fill="#ffffff" stroke="none" x="280" y="72" width="624" height="424"></rect></g><g transform="translate(-141,-62) scale(1,1)"><path fill="none" stroke="#000000" d="M 280 72 L 904 72 L 904 496 L 280 496 L 280 72 Z Z" stroke-miterlimit="10"></path></g><g transform="translate(-141,-62) scale(1,1)"><g><path fill="none" stroke="none"></path><text fill="#000000" stroke="none" font-family="Arial" font-size="13px" font-style="normal" font-weight="bold" text-decoration="none" x="436.66650390625" y="90">Aplikacija za upravljanje ulaznicama - showStarter</text></g></g><g transform="translate(-141,-62) scale(1,1)"><path fill="#ffffff" stroke="none" d="M 185.29753391335228 353.68 C 185.29753391335228 348.886167936 189.18337623829774 345 193.976806640625 345 C 198.77023704295226 345 202.65607936789772 348.886167936 202.65607936789772 353.68 C 202.65607936789772 358.473832064 198.77023704295226 362.36 193.976806640625 362.36 C 189.18337623829774 362.36 185.29753391335228 358.473832064 185.29753391335228 353.68 Z"></path></g><g transform="translate(-141,-62) scale(1,1)"><path fill="none" stroke="#000000" d="M 185.29753391335228 353.68 C 185.29753391335228 348.886167936 189.18337623829774 345 193.976806640625 345 C 198.77023704295226 345 202.65607936789772 348.886167936 202.65607936789772 353.68 C 202.65607936789772 358.473832064 198.77023704295226 362.36 193.976806640625 362.36 C 189.18337623829774 362.36 185.29753391335228 358.473832064 185.29753391335228 353.68 Z" stroke-miterlimit="10"></path></g><g transform="translate(-141,-62) scale(1,1)"><path fill="none" stroke="#000000" d="M 193.976806640625 362.36 L 193.976806640625 379.64" stroke-miterlimit="10"></path></g><g transform="translate(-141,-62) scale(1,1)"><path fill="none" stroke="#000000" d="M 184.78698845880683 368.84 L 203.16662482244317 368.84" stroke-miterlimit="10"></path></g><g transform="translate(-141,-62) scale(1,1)"><path fill="none" stroke="#000000" d="M 193.976806640625 379.64 L 181.21317027698865 397" stroke-miterlimit="10"></path></g><g transform="translate(-141,-62) scale(1,1)"><path fill="none" stroke="#000000" d="M 193.976806640625 379.64 L 206.74044300426135 397" stroke-miterlimit="10"></path></g><g transform="translate(-141,-62) scale(1,1)"><g><path fill="none" stroke="none"></path><text fill="#000000" stroke="none" font-family="Arial" font-size="13px" font-style="normal" font-weight="bold" text-decoration="none" x="157.5" y="416">Organizator</text></g></g><g transform="translate(-141,-62) scale(1,1)"><path fill="#C0C0C0" stroke="none" d="M 343 392 C 343 382.6111584 385.532944 375 438 375 C 490.467056 375 533 382.6111584 533 392 C 533 401.3888416 490.467056 409 438 409 C 385.532944 409 343 401.3888416 343 392 Z" opacity="0.2"></path></g><g transform="translate(-141,-62) scale(1,1)"><path fill="#ffffff" stroke="none" d="M 336 385 C 336 375.6111584 378.532944 368 431 368 C 483.467056 368 526 375.6111584 526 385 C 526 394.3888416 483.467056 402 431 402 C 378.532944 402 336 394.3888416 336 385 Z"></path></g><g transform="translate(-141,-62) scale(1,1)"><path fill="none" stroke="#000000" d="M 336 385 C 336 375.6111584 378.532944 368 431 368 C 483.467056 368 526 375.6111584 526 385 C 526 394.3888416 483.467056 402 431 402 C 378.532944 402 336 394.3888416 336 385 Z" stroke-miterlimit="10"></path></g><g transform="translate(-141,-62) scale(1,1)"><g><path fill="none" stroke="none"></path><text fill="#000000" stroke="none" font-family="Arial" font-size="13px" font-style="normal" font-weight="bold" text-decoration="none" x="368.1328125" y="390.5">Registracija evenata</text></g></g><g transform="translate(-141,-62) scale(1,1)"><path fill="#ffffff" stroke="none" d="M 975.2311276633523 353.68 C 975.2311276633523 348.886167936 979.1169699882977 345 983.910400390625 345 C 988.7038307929523 345 992.5896731178977 348.886167936 992.5896731178977 353.68 C 992.5896731178977 358.473832064 988.7038307929523 362.36 983.910400390625 362.36 C 979.1169699882977 362.36 975.2311276633523 358.473832064 975.2311276633523 353.68 Z"></path></g><g transform="translate(-141,-62) scale(1,1)"><path fill="none" stroke="#000000" d="M 975.2311276633523 353.68 C 975.2311276633523 348.886167936 979.1169699882977 345 983.910400390625 345 C 988.7038307929523 345 992.5896731178977 348.886167936 992.5896731178977 353.68 C 992.5896731178977 358.473832064 988.7038307929523 362.36 983.910400390625 362.36 C 979.1169699882977 362.36 975.2311276633523 358.473832064 975.2311276633523 353.68 Z" stroke-miterlimit="10"></path></g><g transform="translate(-141,-62) scale(1,1)"><path fill="none" stroke="#000000" d="M 983.910400390625 362.36 L 983.910400390625 379.64" stroke-miterlimit="10"></path></g><g transform="translate(-141,-62) scale(1,1)"><path fill="none" stroke="#000000" d="M 974.7205822088068 368.84 L 993.1002185724432 368.84" stroke-miterlimit="10"></path></g><g transform="translate(-141,-62) scale(1,1)"><path fill="none" stroke="#000000" d="M 983.910400390625 379.64 L 971.1467640269886 397" stroke-miterlimit="10"></path></g><g transform="translate(-141,-62) scale(1,1)"><path fill="none" stroke="#000000" d="M 983.910400390625 379.64 L 996.6740367542614 397" stroke-miterlimit="10"></path></g><g transform="translate(-141,-62) scale(1,1)"><g><path fill="none" stroke="none"></path><text fill="#000000" stroke="none" font-family="Arial" font-size="13px" font-style="normal" font-weight="bold" text-decoration="none" x="956.818603515625" y="416">Djelatnik</text></g></g><g transform="translate(-141,-62) scale(1,1)"><path fill="none" stroke="#000000" d="M 236 383 L 335 384" stroke-miterlimit="10"></path></g><g transform="translate(-141,-62) scale(1,1)"><path fill="none" stroke="#000000" d="M 324.795325341268 388.10665497813403 L 335 384 L 324.88036176597603 379.68804893204015" stroke-miterlimit="10"></path></g><g transform="translate(-141,-62) scale(1,1)"><path fill="#C0C0C0" stroke="none" d="M 653 390 C 653 380.6111584 689.7126464 373 735 373 C 780.2873536 373 817 380.6111584 817 390 C 817 399.3888416 780.2873536 407 735 407 C 689.7126464 407 653 399.3888416 653 390 Z" opacity="0.2"></path></g><g transform="translate(-141,-62) scale(1,1)"><path fill="#ffffff" stroke="none" d="M 646 383 C 646 373.6111584 682.7126464 366 728 366 C 773.2873536 366 810 373.6111584 810 383 C 810 392.3888416 773.2873536 400 728 400 C 682.7126464 400 646 392.3888416 646 383 Z"></path></g><g transform="translate(-141,-62) scale(1,1)"><path fill="none" stroke="#000000" d="M 646 383 C 646 373.6111584 682.7126464 366 728 366 C 773.2873536 366 810 373.6111584 810 383 C 810 392.3888416 773.2873536 400 728 400 C 682.7126464 400 646 392.3888416 646 383 Z" stroke-miterlimit="10"></path></g><g transform="translate(-141,-62) scale(1,1)"><g><path fill="none" stroke="none"></path><text fill="#000000" stroke="none" font-family="Arial" font-size="13px" font-style="normal" font-weight="bold" text-decoration="none" x="674.530517578125" y="388.5">Provjera ulaznica</text></g></g><g transform="translate(-141,-62) scale(1,1)"><path fill="none" stroke="#000000" d="M 943 383 L 811 383" stroke-miterlimit="10"></path></g><g transform="translate(-141,-62) scale(1,1)"><path fill="none" stroke="#000000" d="M 821.1626748576241 378.790482243984 L 811 383 L 821.1626748576241 387.209517756016" stroke-miterlimit="10"></path></g><g transform="translate(-141,-62) scale(1,1)"><path fill="#ffffff" stroke="none" d="M 184.99553196022728 201.68 C 184.99553196022728 196.886167936 188.88137428517274 193 193.6748046875 193 C 198.46823508982726 193 202.35407741477272 196.886167936 202.35407741477272 201.68 C 202.35407741477272 206.47383206400002 198.46823508982726 210.36 193.6748046875 210.36 C 188.88137428517274 210.36 184.99553196022728 206.47383206400002 184.99553196022728 201.68 Z"></path></g><g transform="translate(-141,-62) scale(1,1)"><path fill="none" stroke="#000000" d="M 184.99553196022728 201.68 C 184.99553196022728 196.886167936 188.88137428517274 193 193.6748046875 193 C 198.46823508982726 193 202.35407741477272 196.886167936 202.35407741477272 201.68 C 202.35407741477272 206.47383206400002 198.46823508982726 210.36 193.6748046875 210.36 C 188.88137428517274 210.36 184.99553196022728 206.47383206400002 184.99553196022728 201.68 Z" stroke-miterlimit="10"></path></g><g transform="translate(-141,-62) scale(1,1)"><path fill="none" stroke="#000000" d="M 193.6748046875 210.36 L 193.6748046875 227.64" stroke-miterlimit="10"></path></g><g transform="translate(-141,-62) scale(1,1)"><path fill="none" stroke="#000000" d="M 184.48498650568183 216.84 L 202.86462286931817 216.84" stroke-miterlimit="10"></path></g><g transform="translate(-141,-62) scale(1,1)"><path fill="none" stroke="#000000" d="M 193.6748046875 227.64 L 180.91116832386365 245" stroke-miterlimit="10"></path></g><g transform="translate(-141,-62) scale(1,1)"><path fill="none" stroke="#000000" d="M 193.6748046875 227.64 L 206.43844105113635 245" stroke-miterlimit="10"></path></g><g transform="translate(-141,-62) scale(1,1)"><g><path fill="none" stroke="none"></path><text fill="#000000" stroke="none" font-family="Arial" font-size="13px" font-style="normal" font-weight="bold" text-decoration="none" x="173.809814453125" y="264">Kupac</text></g></g><g transform="translate(-141,-62) scale(1,1)"><path fill="#C0C0C0" stroke="none" d="M 358 168 C 358 158.6111584 394.0410736 151 438.5 151 C 482.9589264 151 519 158.6111584 519 168 C 519 177.3888416 482.9589264 185 438.5 185 C 394.0410736 185 358 177.3888416 358 168 Z" opacity="0.2"></path></g><g transform="translate(-141,-62) scale(1,1)"><path fill="#ffffff" stroke="none" d="M 351 161 C 351 151.6111584 387.0410736 144 431.5 144 C 475.9589264 144 512 151.6111584 512 161 C 512 170.3888416 475.9589264 178 431.5 178 C 387.0410736 178 351 170.3888416 351 161 Z"></path></g><g transform="translate(-141,-62) scale(1,1)"><path fill="none" stroke="#000000" d="M 351 161 C 351 151.6111584 387.0410736 144 431.5 144 C 475.9589264 144 512 151.6111584 512 161 C 512 170.3888416 475.9589264 178 431.5 178 C 387.0410736 178 351 170.3888416 351 161 Z" stroke-miterlimit="10"></path></g><g transform="translate(-141,-62) scale(1,1)"><g><path fill="none" stroke="none"></path><text fill="#000000" stroke="none" font-family="Arial" font-size="13px" font-style="normal" font-weight="bold" text-decoration="none" x="379.109619140625" y="166.5">Pretraga evenata</text></g></g><g transform="translate(-141,-62) scale(1,1)"><path fill="#C0C0C0" stroke="none" d="M 362 238 C 362 228.6111584 396.2502128 221 438.5 221 C 480.7497872 221 515 228.6111584 515 238 C 515 247.3888416 480.7497872 255 438.5 255 C 396.2502128 255 362 247.3888416 362 238 Z" opacity="0.2"></path></g><g transform="translate(-141,-62) scale(1,1)"><path fill="#ffffff" stroke="none" d="M 355 231 C 355 221.6111584 389.2502128 214 431.5 214 C 473.7497872 214 508 221.6111584 508 231 C 508 240.3888416 473.7497872 248 431.5 248 C 389.2502128 248 355 240.3888416 355 231 Z"></path></g><g transform="translate(-141,-62) scale(1,1)"><path fill="none" stroke="#000000" d="M 355 231 C 355 221.6111584 389.2502128 214 431.5 214 C 473.7497872 214 508 221.6111584 508 231 C 508 240.3888416 473.7497872 248 431.5 248 C 389.2502128 248 355 240.3888416 355 231 Z" stroke-miterlimit="10"></path></g><g transform="translate(-141,-62) scale(1,1)"><g><path fill="none" stroke="none"></path><text fill="#000000" stroke="none" font-family="Arial" font-size="13px" font-style="normal" font-weight="bold" text-decoration="none" x="382.02001953125" y="236.5">Kupnja ulaznica</text></g></g><g transform="translate(-141,-62) scale(1,1)"><path fill="#C0C0C0" stroke="none" d="M 598 192 C 598 182.6111584 659.3369824 175 735 175 C 810.6630176 175 872 182.6111584 872 192 C 872 201.3888416 810.6630176 209 735 209 C 659.3369824 209 598 201.3888416 598 192 Z" opacity="0.2"></path></g><g transform="translate(-141,-62) scale(1,1)"><path fill="#ffffff" stroke="none" d="M 591 185 C 591 175.6111584 652.3369824 168 728 168 C 803.6630176 168 865 175.6111584 865 185 C 865 194.3888416 803.6630176 202 728 202 C 652.3369824 202 591 194.3888416 591 185 Z"></path></g><g transform="translate(-141,-62) scale(1,1)"><path fill="none" stroke="#000000" d="M 591 185 C 591 175.6111584 652.3369824 168 728 168 C 803.6630176 168 865 175.6111584 865 185 C 865 194.3888416 803.6630176 202 728 202 C 652.3369824 202 591 194.3888416 591 185 Z" stroke-miterlimit="10"></path></g><g transform="translate(-141,-62) scale(1,1)"><g><path fill="none" stroke="none"></path><text fill="#000000" stroke="none" font-family="Arial" font-size="13px" font-style="normal" font-weight="bold" text-decoration="none" x="635.543212890625" y="190.5">Kupnja iz sekundarnog tržišta</text></g></g><g transform="translate(-141,-62) scale(1,1)"><path fill="none" stroke="#000000" d="M 612 203 L 509 219" stroke-miterlimit="10" stroke-dasharray="3"></path></g><g transform="translate(-141,-62) scale(1,1)"><path fill="none" stroke="#000000" d="M 518.3960791167042 213.28041109583612 L 509 219 L 519.6883913597205 221.59967116025325" stroke-miterlimit="10"></path></g><g transform="translate(-141,-62) scale(1,1)"><g><path fill="none" stroke="none"></path><text fill="#000000" stroke="none" font-family="Arial" font-size="13px" font-style="normal" font-weight="normal" text-decoration="none" x="546.5" y="235">«extend»</text></g></g><g transform="translate(-141,-62) scale(1,1)"><path fill="#C0C0C0" stroke="none" d="M 345 312 C 345 302.6111584 386.6375136 295 438 295 C 489.3624864 295 531 302.6111584 531 312 C 531 321.3888416 489.3624864 329 438 329 C 386.6375136 329 345 321.3888416 345 312 Z" opacity="0.2"></path></g><g transform="translate(-141,-62) scale(1,1)"><path fill="#ffffff" stroke="none" d="M 338 305 C 338 295.6111584 379.6375136 288 431 288 C 482.3624864 288 524 295.6111584 524 305 C 524 314.3888416 482.3624864 322 431 322 C 379.6375136 322 338 314.3888416 338 305 Z"></path></g><g transform="translate(-141,-62) scale(1,1)"><path fill="none" stroke="#000000" d="M 338 305 C 338 295.6111584 379.6375136 288 431 288 C 482.3624864 288 524 295.6111584 524 305 C 524 314.3888416 482.3624864 322 431 322 C 379.6375136 322 338 314.3888416 338 305 Z" stroke-miterlimit="10"></path></g><g transform="translate(-141,-62) scale(1,1)"><g><path fill="none" stroke="none"></path><text fill="#000000" stroke="none" font-family="Arial" font-size="13px" font-style="normal" font-weight="bold" text-decoration="none" x="369.589599609375" y="310.5">Preprodaja ulaznica</text></g></g><g transform="translate(-141,-62) scale(1,1)"><path fill="none" stroke="#000000" d="M 237 218 L 370 179" stroke-miterlimit="10"></path></g><g transform="translate(-141,-62) scale(1,1)"><path fill="none" stroke="#000000" d="M 361.43244352611543 185.89905617217306 L 370 179 L 359.0634533159871 177.82019212224802" stroke-miterlimit="10"></path></g><g transform="translate(-141,-62) scale(1,1)"><path fill="none" stroke="#000000" d="M 237 231 L 354 231" stroke-miterlimit="10"></path></g><g transform="translate(-141,-62) scale(1,1)"><path fill="none" stroke="#000000" d="M 343.83732514237585 235.209517756016 L 354 231 L 343.83732514237585 226.790482243984" stroke-miterlimit="10"></path></g><g transform="translate(-141,-62) scale(1,1)"><path fill="none" stroke="#000000" d="M 237 245 L 373 287" stroke-miterlimit="10"></path></g><g transform="translate(-141,-62) scale(1,1)"><path fill="none" stroke="#000000" d="M 362.0477060665231 288.0233560449453 L 373 287 L 364.5319366911412 279.9791806890393" stroke-miterlimit="10"></path></g></g></svg>